<svg xmlns="http://www.w3.org/2000/svg" viewBox="0 0 773 272.38"><defs><style>.cls-1{fill:gray;}.cls-2{fill:#007fff;}.cls-3{fill:#ff8000;}.cls-4{fill:lime;}</style></defs><g id="Layer_2" data-name="Layer 2"><g id="Layer_1-2" data-name="Layer 1"><rect class="cls-1" width="234.81" height="61.05" rx="30.53"/><rect class="cls-2" y="70.44" width="185.5" height="61.05" rx="30.53"/><rect class="cls-3" y="140.89" width="159.67" height="61.05" rx="30.53"/><rect class="cls-4" y="211.33" width="119.75" height="61.05" rx="30.53"/><path d="M364.2,87.66c1.35,3.23,2,5.57,2,7q0,5.11-8.35,8.62a18.59,18.59,0,0,1-6.93,1.88,6.88,6.88,0,0,1-4.31-1.28,9.61,9.61,0,0,1-2.49-2.62q-1.35-2.57-10.5-24.37l-4.18.26h-17V92.37a38.19,38.19,0,0,1-.2,4.65,10.58,10.58,0,0,1-1.28,3.56c-1.25,2.43-4.76,3.64-10.5,3.64q-9.42,0-11-5a22.5,22.5,0,0,1-.81-7V17.5a40.17,40.17,0,0,1,.2-4.64,10.93,10.93,0,0,1,1.28-3.57Q292,5.66,300.65,5.66h29.08q11.85,0,23,8.61a31.67,31.67,0,0,1,8.88,11.31,35.53,35.53,0,0,1,3.5,15.89q0,15.22-10.09,25Q358,73.66,364.2,87.66ZM312.49,53.32h17.24a12.92,12.92,0,0,0,7.81-3q3.9-3,3.9-8.89t-3.9-8.95a13,13,0,0,0-8.08-3h-17Z"/><path d="M439.34,60.39q0,8.28-4.11,12.25a12.82,12.82,0,0,1-9.09,4H394.23q0,3.76,4.44,6.32a17.64,17.64,0,0,0,8.89,2.56q7.8,0,12.25-1.61l1.48-.54a13.55,13.55,0,0,1,5.39-1.48q4.31,0,7.4,6.06a14.84,14.84,0,0,1,1.76,6.19q0,12-28.69,12a43.23,43.23,0,0,1-17.7-3.44,30.08,30.08,0,0,1-12.05-9.09,38.68,38.68,0,0,1-8.49-24.37q0-17,11-27.13t27.4-10.17q18.72,0,27.47,13.2A27.39,27.39,0,0,1,439.34,60.39Zm-28.42,4c3.41,0,5.12-1.43,5.12-4.31a6.1,6.1,0,0,0-2.35-5A10.62,10.62,0,0,0,407,53.19a13.58,13.58,0,0,0-8.68,3.57c-2.88,2.37-4.31,4.91-4.31,7.6Z"/><path d="M470.31,68.87q0,5.73,3.77,8.89a12.26,12.26,0,0,0,8,3.17,13.92,13.92,0,0,0,7.94-2.5q3.71-2.49,6-2.49,4.05,0,9.83,7.14c2.07,2.6,3.1,4.94,3.1,7q0,5.11-7.41,9.56Q493.88,105,482.69,105q-12.53,0-24.1-9a32.06,32.06,0,0,1-9-11.52,35.78,35.78,0,0,1-3.5-15.89,34.93,34.93,0,0,1,3.5-15.75,32.41,32.41,0,0,1,9-11.38q11.18-8.88,23.83-8.88a35.53,35.53,0,0,1,10,1.41,33.21,33.21,0,0,1,7.14,2.76l2.15,1.35c1.62,1.07,2.87,1.93,3.77,2.55q3.49,2.7,3.5,6.13t-2.83,7.74q-4.85,7.41-9.29,7.41-2.56,0-7.27-3c-1.61-1.53-3.93-2.29-6.93-2.29a13,13,0,0,0-8.42,3.23A11,11,0,0,0,470.31,68.87Z"/><path d="M581,34.2q7.95,3.51,7.94,8.48a10.18,10.18,0,0,1-1.07,4.58,22.57,22.57,0,0,0-1.08,2.29L551.5,128.46c-.72,1.7-1.32,3-1.82,3.9a8.3,8.3,0,0,1-2.35,2.56,6.55,6.55,0,0,1-4,1.21q-2.43,0-7.14-2-7.95-3.5-7.94-8.35,0-3.23,12.92-30.83L514.34,49.82c-1.8-3-2.69-5.16-2.69-6.6q0-4.3,7.26-8.61,4.59-2.7,7.14-2.7A7.39,7.39,0,0,1,530.23,33a8.16,8.16,0,0,1,2.35,2.22q.74,1.14,7.41,12.52t12.72,21.21q.67-2.14,7.27-16.63t7.07-15.42a14,14,0,0,1,1.55-2.28,5.83,5.83,0,0,1,4.92-2.29A19.13,19.13,0,0,1,581,34.2Z"/><path d="M614.52,68.87q0,5.73,3.77,8.89a12.26,12.26,0,0,0,8,3.17,13.92,13.92,0,0,0,7.94-2.5q3.71-2.49,6-2.49,4,0,9.83,7.14c2.07,2.6,3.1,4.94,3.1,7q0,5.11-7.41,9.56Q638.09,105,626.9,105q-12.52,0-24.1-9a32.06,32.06,0,0,1-9-11.52,35.78,35.78,0,0,1-3.5-15.89,34.93,34.93,0,0,1,3.5-15.75,32.41,32.41,0,0,1,9-11.38q11.18-8.88,23.84-8.88a35.46,35.46,0,0,1,10,1.41,33.21,33.21,0,0,1,7.14,2.76l2.15,1.35c1.62,1.07,2.87,1.93,3.77,2.55q3.5,2.7,3.5,6.13t-2.83,7.74q-4.85,7.41-9.29,7.41c-1.7,0-4.13-1-7.27-3-1.61-1.53-3.93-2.29-6.93-2.29a13,13,0,0,0-8.42,3.23A11,11,0,0,0,614.52,68.87Z"/><path d="M661.91,11.85a40.49,40.49,0,0,1,.2-4.65,12.55,12.55,0,0,1,1.15-3.56C664.51,1.21,668,0,673.76,0Q682,0,684,3.64a10.69,10.69,0,0,1,1.27,3.63,39.44,39.44,0,0,1,.21,4.71V74.33c0,3.23.26,5.27.8,6.12s1.73,1.28,3.57,1.28a22.26,22.26,0,0,1,3.71.2,6.82,6.82,0,0,1,2.28,1.15q2.7,1.76,2.7,9.56,0,8.48-2.7,10.37-3.5,2.42-16.69.81-10.38-1.35-13.47-6.87-3.76-6.6-3.77-21Z"/><path d="M773,60.39q0,8.28-4.11,12.25a12.82,12.82,0,0,1-9.09,4H727.89q0,3.76,4.45,6.32a17.61,17.61,0,0,0,8.88,2.56q7.81,0,12.26-1.61l1.48-.54a13.51,13.51,0,0,1,5.38-1.48q4.3,0,7.41,6.06a15,15,0,0,1,1.75,6.19q0,12-28.68,12a43.25,43.25,0,0,1-17.71-3.44,30.08,30.08,0,0,1-12.05-9.09,38.73,38.73,0,0,1-8.48-24.37q0-17,11-27.13T741,31.91q18.72,0,27.47,13.2A27.39,27.39,0,0,1,773,60.39Zm-28.41,4c3.41,0,5.12-1.43,5.12-4.31a6.08,6.08,0,0,0-2.36-5c-1.57-1.25-3.82-1.88-6.73-1.88a13.61,13.61,0,0,0-8.69,3.57c-2.87,2.37-4.31,4.91-4.31,7.6Z"/><path d="M335.12,170.47a5.83,5.83,0,0,1,3.7-2.63,26.19,26.19,0,0,1,6.87-.74,21.41,21.41,0,0,1,6.8.88,6.2,6.2,0,0,1,3.63,2.83,10,10,0,0,1,1.28,3.56,40,40,0,0,1,.2,4.72V254c0,3.5-.42,6.08-1.28,7.74a6.3,6.3,0,0,1-3.9,3.3,22.48,22.48,0,0,1-6.53.81,22.77,22.77,0,0,1-6.2-.67,10.7,10.7,0,0,1-3.5-1.62,5.23,5.23,0,0,1-1.75-2.69,22.53,22.53,0,0,1-.8-7V237.39h-36.5q-9.42,0-11.17-5.12a20,20,0,0,1-.67-5.79,26,26,0,0,1,.4-5.38L296.87,176a48,48,0,0,1,1.42-4.71,7.51,7.51,0,0,1,2.42-3.1,7.1,7.1,0,0,1,4.65-1.48,23,23,0,0,1,6.19.94q9.42,2.56,9.43,8.62a23.19,23.19,0,0,1-.94,5.65,1.08,1.08,0,0,0-.14.41l-8.21,32.85h21.95V178.41a36.46,36.46,0,0,1,.2-4.58A9.53,9.53,0,0,1,335.12,170.47Z"/><path d="M453.88,206.42h23.69q7.28.27,8.89,3.77,1.35,2.56,1.35,7.54v29.62q0,4.32-3.77,8.22-11.31,11.71-33.93,11.71-20.07,0-34.88-15.15a50.4,50.4,0,0,1-14.81-36.56q0-21.4,15.08-35.74a49.88,49.88,0,0,1,35.55-14.34q15.88,0,30,10.5c2.42,1.8,3.63,3.79,3.63,6s-1,4.74-3.1,7.61q-5.25,7.14-9.56,7.14-2.55,0-8.21-3.71a24,24,0,0,0-13.47-3.7,26.27,26.27,0,0,0-18.17,7.2q-7.95,7.22-7.95,18.85a27.09,27.09,0,0,0,8.08,19.8q8.09,8.15,18.31,8.14A34.92,34.92,0,0,0,464,240.89V226.21H453.34c-2.79,0-4.76-.35-5.93-1.07a5.09,5.09,0,0,1-2.29-3.17,23.44,23.44,0,0,1-.54-5.65,22.05,22.05,0,0,1,.61-5.73,4.48,4.48,0,0,1,2.22-3A14.55,14.55,0,0,1,453.88,206.42Z"/><path d="M498.58,173.43a38.3,38.3,0,0,1,.2-4.65,12.49,12.49,0,0,1,1.14-3.56q1.89-3.65,10.51-3.64,8.2,0,10.23,3.64a10.52,10.52,0,0,1,1.28,3.63,42.2,42.2,0,0,1,.2,4.71v62.35q0,4.84.81,6.12c.54.86,1.73,1.28,3.57,1.28a20.72,20.72,0,0,1,3.7.21,6.6,6.6,0,0,1,2.29,1.14q2.68,1.76,2.69,9.56,0,8.49-2.69,10.37-3.51,2.42-16.7.81-10.36-1.35-13.46-6.87-3.78-6.6-3.77-21Z"/><path d="M551.9,203.86q11.31-10.5,25.85-10.5t25.72,10.43q11.17,10.44,11.18,26.6a35,35,0,0,1-5.79,19.86A36.32,36.32,0,0,1,594.79,263a38.19,38.19,0,0,1-17.17,4.11,36.67,36.67,0,0,1-17.24-4.38,38.16,38.16,0,0,1-14.07-12.93,34,34,0,0,1-5.72-19.32Q540.59,214.37,551.9,203.86Zm16.83,36.29a14.3,14.3,0,0,0,8.75,3.3,14.64,14.64,0,0,0,8.89-3.37q4.44-3.36,4.44-10t-4.17-9.83a14.4,14.4,0,0,0-9-3.23,14.1,14.1,0,0,0-9,3.36q-4.19,3.38-4.18,9.9T568.73,240.15Z"/><path d="M662.31,195.11q12,0,22,10.64a35.44,35.44,0,0,1,.06,49.35q-10,10.56-21.41,10.57t-16.29-6.47q-1.08,6.6-11.58,6.6-8.48,0-10.37-3.63a12.32,12.32,0,0,1-1.14-3.57,38.08,38.08,0,0,1-.2-4.65V173.56a38,38,0,0,1,.2-4.64,10.76,10.76,0,0,1,1.14-3.43q1.89-3.65,10.51-3.64t10.23,3.64a10.8,10.8,0,0,1,1.28,3.56,40.49,40.49,0,0,1,.2,4.65v28Q652.34,195.11,662.31,195.11ZM650.53,238.6a10.69,10.69,0,0,0,8.28,3.64,12.21,12.21,0,0,0,12-11.72,12.08,12.08,0,0,0-3.23-8.14,10.85,10.85,0,0,0-8.61-3.71,10.6,10.6,0,0,0-8.56,3.77,12.44,12.44,0,0,0-3.16,8.15A11.65,11.65,0,0,0,650.53,238.6Z"/><path d="M771.51,222q0,8.28-4.11,12.26a12.81,12.81,0,0,1-9.08,4H726.4c0,2.51,1.49,4.62,4.45,6.33a17.7,17.7,0,0,0,8.88,2.55q7.82,0,12.26-1.61l1.48-.54a13.51,13.51,0,0,1,5.39-1.48q4.3,0,7.4,6.06A14.8,14.8,0,0,1,768,255.7q0,12-28.68,12a43.28,43.28,0,0,1-17.71-3.44,30.08,30.08,0,0,1-12-9.09,38.73,38.73,0,0,1-8.48-24.37q0-17,11-27.13t27.4-10.17q18.72,0,27.47,13.2A27.39,27.39,0,0,1,771.51,222Zm-28.41,4c3.41,0,5.12-1.43,5.12-4.31a6.08,6.08,0,0,0-2.36-5c-1.57-1.25-3.82-1.88-6.73-1.88a13.61,13.61,0,0,0-8.69,3.57q-4.31,3.57-4.3,7.6Z"/></g></g></svg>